<?xml version="1.0" encoding="iso-8859-1"?>
<!-- Uploaded to: SVG Repo, www.svgrepo.com, Generator: SVG Repo Mixer Tools -->
<svg height="800px" width="800px" version="1.1" id="Layer_1" xmlns="http://www.w3.org/2000/svg" xmlns:xlink="http://www.w3.org/1999/xlink" 
	 viewBox="0 0 512 512" xml:space="preserve">
<path d="M511.232,141.483c-1.365-2.987-4.437-4.949-7.765-4.949h-25.6v-128c0-4.693-3.84-8.533-8.533-8.533H332.8
	c-4.693,0-8.533,3.84-8.533,8.533v34.133c0,4.693,3.84,8.533,8.533,8.533h93.867v85.333h-25.6c-3.328,0-6.4,1.963-7.765,4.949
	c-1.365,3.072-0.853,6.571,1.28,9.131l51.2,59.733c1.621,1.877,4.011,2.987,6.485,2.987s4.864-1.109,6.485-2.987l51.2-59.733
	C512.085,148.053,512.597,144.555,511.232,141.483z M452.267,191.659L419.584,153.6H435.2c4.693,0,8.533-3.84,8.533-8.533v-102.4
	c0-4.693-3.84-8.533-8.533-8.533h-93.867V17.067H460.8v128c0,4.693,3.84,8.533,8.533,8.533h15.616L452.267,191.659z"/>
<path style="fill:#C90006;" d="M484.949,153.6l-32.683,38.059L419.584,153.6H435.2c4.693,0,8.533-3.84,8.533-8.533v-102.4
	c0-4.693-3.84-8.533-8.533-8.533h-93.867V17.067H460.8v128c0,4.693,3.84,8.533,8.533,8.533H484.949z"/>
<path d="M179.2,460.8H85.333v-85.333h25.6c3.328,0,6.4-1.963,7.765-4.949c1.365-3.072,0.853-6.571-1.28-9.131l-51.2-59.733
	c-3.243-3.755-9.728-3.755-12.971,0l-51.2,59.733c-2.133,2.56-2.645,6.059-1.28,9.131c1.365,2.987,4.437,4.949,7.765,4.949h25.6v128
	c0,4.693,3.84,8.533,8.533,8.533H179.2c4.693,0,8.533-3.84,8.533-8.533v-34.133C187.733,464.64,183.893,460.8,179.2,460.8z
	 M170.667,494.933H51.2v-128c0-4.693-3.84-8.533-8.533-8.533H27.051l32.683-38.059L92.416,358.4H76.8
	c-4.693,0-8.533,3.84-8.533,8.533v102.4c0,4.693,3.84,8.533,8.533,8.533h93.867V494.933z"/>
<path style="fill:#C90006;" d="M170.667,477.867v17.067H51.2v-128c0-4.693-3.84-8.533-8.533-8.533H27.051l32.683-38.059
	L92.416,358.4H76.8c-4.693,0-8.533,3.84-8.533,8.533v102.4c0,4.693,3.84,8.533,8.533,8.533H170.667z"/>
<path d="M503.467,230.4H230.4c-4.693,0-8.533,3.84-8.533,8.533v264.533c0,4.693,3.84,8.533,8.533,8.533h273.067
	c4.693,0,8.533-3.84,8.533-8.533V238.933C512,234.24,508.16,230.4,503.467,230.4z M494.933,494.933h-256V247.467h256V494.933z"/>
<path style="fill:#AFAFAF;" d="M274.517,273.067l116.736,191.829c1.621,2.645,1.707,5.888,0.171,8.619
	c-1.536,2.645-4.352,4.352-7.424,4.352H264.533c-4.693,0-8.533-3.84-8.533-8.533V273.067h-17.067v221.867h230.4V273.067H274.517z"/>
<path style="fill:#7E939E;" d="M494.933,247.467v247.467h-25.6V273.067H274.517l-2.731-4.437c-1.963-3.243-5.888-4.864-9.557-3.755
	c-3.669,1.024-6.229,4.352-6.229,8.192h-17.067v-25.6H494.933z"/>
<path d="M391.253,464.905L274.517,273.075l-2.731-4.437c-1.963-3.243-5.888-4.864-9.557-3.755c-3.669,1.024-6.229,4.352-6.229,8.192
	v196.267c0,4.693,3.84,8.533,8.533,8.533H384c3.072,0,5.888-1.707,7.424-4.352C392.96,470.793,392.875,467.55,391.253,464.905z
	 M273.067,460.809V303.539l95.744,157.269H273.067z"/>
<polygon style="fill:#E5E5E5;" points="368.811,460.809 344.576,460.809 273.067,346.462 273.067,303.539 "/>
<polygon style="fill:#F9F9F9;" points="344.576,460.8 273.067,460.8 273.067,346.453 "/>
<path d="M298.667,0H8.533C3.84,0,0,3.84,0,8.533v256c0,4.693,3.84,8.533,8.533,8.533H153.6c2.304,0,4.437-0.939,6.059-2.475
	l82.773-82.859h56.235c4.693,0,8.533-3.84,8.533-8.533V8.533C307.2,3.84,303.36,0,298.667,0z M290.133,170.667h-51.2
	c-2.304,0-4.437,0.939-6.059,2.475L150.101,256H17.067V17.067h273.067V170.667z"/>
<polygon style="fill:#7E939E;" points="290.133,17.067 290.133,170.667 264.533,170.667 264.533,42.667 17.067,42.667 
	17.067,17.067 "/>
<path style="fill:#AFAFAF;" d="M264.533,42.667v128h-25.6c-2.304,0-4.437,0.939-6.059,2.475L150.101,256H17.067V42.667H264.533z"/>
</svg>