<?xml version="1.0" encoding="utf-8"?>
<!-- Uploaded to: SVG Repo, www.svgrepo.com, Generator: SVG Repo Mixer Tools -->
<svg width="800px" height="800px" viewBox="0 -7.98 48.891 48.891" xmlns="http://www.w3.org/2000/svg">
  <g id="truck_with_money" data-name="truck with money" transform="translate(-130.272 -138.254)">
    <path id="Path_34" data-name="Path 34" d="M130.772,166.69H162.7V160.7H130.772v5.986Z" fill="#56ae89" fill-rule="evenodd"/>
    <path id="Path_35" data-name="Path 35" d="M162.7,166.69h15.964V154.718l-6.022-11.973H162.7V166.69Z" fill="#e23a44" fill-rule="evenodd"/>
    <path id="Path_36" data-name="Path 36" d="M174.672,146.736H171.9v7.982h6.116l-3.342-7.982Z" fill="#f2f7fd" fill-rule="evenodd"/>
    <path id="Path_37" data-name="Path 37" d="M130.772,160.7v-21.95H162.7V160.7Z" fill="#f2f7fd" fill-rule="evenodd"/>
    <path id="Path_38" data-name="Path 38" d="M138.754,162.7a3.991,3.991,0,1,1-3.991,3.99,3.992,3.992,0,0,1,3.991-3.99Z" fill="#354077" fill-rule="evenodd"/>
    <path id="Path_39" data-name="Path 39" d="M170.681,162.7a3.991,3.991,0,1,1-3.991,3.99,3.992,3.992,0,0,1,3.991-3.99Z" fill="#354077" fill-rule="evenodd"/>
    <path id="Path_40" data-name="Path 40" d="M146.736,141.522a7.981,7.981,0,1,1-7.982,7.981,7.985,7.985,0,0,1,7.982-7.981Z" fill="#ffe959" fill-rule="evenodd"/>
    <path id="Path_41" data-name="Path 41" d="M146.736,141.522a7.981,7.981,0,1,1-7.982,7.981,7.985,7.985,0,0,1,7.982-7.981Zm31.927,29.159H130.772m0-23.945v-7.982H162.7V160.7m-31.927,0V146.736m35.918,10.013h2m5.986-10.013H171.9v7.982h6.116m-3.343,11.972h3.991V154.718l-6.022-11.973H162.7V166.69h3.991m3.991-3.99a3.991,3.991,0,1,1-3.991,3.99,3.992,3.992,0,0,1,3.991-3.99Zm-15.963,3.99H162.7V160.7H130.772v5.986h3.991m11.973-25.168a7.981,7.981,0,1,1-7.982,7.981,7.985,7.985,0,0,1,7.982-7.981Zm0,11.972v1m0-9.977v1m-2,5.986a2,2,0,1,0,2-2m2-2a2,2,0,1,0-2,2m3.492,17.187h1m-8.48,0h3.991m-7.982-3.99a3.991,3.991,0,1,1-3.991,3.99,3.992,3.992,0,0,1,3.991-3.99Z" fill="none" stroke="#0f0e0b" stroke-linecap="round" stroke-linejoin="round" stroke-width="1"/>
  </g>
</svg>